<svg xmlns="http://www.w3.org/2000/svg" id="Layer_1" data-name="Layer 1" viewBox="0 0 375 180">
  <defs>
    <style>
      .cls-2,.cls-3{fill:#00a79d;opacity:.6}.cls-3{fill:#5ebfa6}
    </style>
  </defs>
  <path fill="#27aae1" d="M205.36 126.48l-21.03-36.43h15.84l-20.35-35.26h13.29l-18.43-31.91-18.42 31.91h17.02l-20.35 35.26h17.7l-21.04 36.43h55.77z"/>
  <path d="M247.3 141.87l-10.6-18.35h8.39l-10.79-18.7h7.99l-9.95-17.23-9.95 17.23h9.08l-10.8 18.7h8.4l-10.59 18.35h28.82zM320.27 135.56l-14.12-24.45h11.18L302.95 86.2h11.65l-13.26-22.95-13.25 22.95h11.09l-14.38 24.91h11.19l-14.11 24.45h38.39z" class="cls-2"/>
  <path d="M136.48 135.23l-14.3-24.75h11.32l-14.56-25.23h10.78l-13.11-22.7-13.11 22.7h11.31l-14.56 25.23h12.63l-14.3 24.75h37.9zM83.15 144.7l-9.02-15.62h7.14l-9.19-15.92h6.81l-8.28-14.33-8.27 14.33h7.14l-9.19 15.92h7.97l-9.02 15.62h23.91zM283.14 138.8l-12.31-21.32h9.75l-12.54-21.71h9.28l-11.29-19.55-11.28 19.55h9.74l-12.54 21.71h10.87l-12.31 21.32h32.63z" class="cls-3"/>
  <path fill="#fff" d="M329 161.81h-31.74v-25.25h23a1 1 0 0 0 .87-.5 1 1 0 0 0 0-1l-13.25-23h9.44a1 1 0 0 0 .86-1.5l-13.5-23.36h8.91a1 1 0 0 0 .87-.5 1 1 0 0 0 0-1l-17.33-30a1 1 0 0 0-.87-.5 1 1 0 0 0-.86.5l-17.34 30a1 1 0 0 0 0 1 1 1 0 0 0 .87.5h8.91L276 107.64l-6.27-10.87h7.55a1 1 0 0 0 .87-.5 1 1 0 0 0 0-1l-15.08-26.18a1 1 0 0 0-1.73 0l-15.11 26.18a1 1 0 0 0 .86 1.5h7.55L243 117a1 1 0 0 0-.11.67L236 105.82h6.26a1 1 0 0 0 .87-.5 1 1 0 0 0 0-1l-13-22.53a1 1 0 0 0-1.73 0l-13 22.53a1 1 0 0 0 .86 1.5h6.26L212.6 123a1 1 0 0 0 0 1 1 1 0 0 0 .86.5h6.66l-9.73 16.85a1 1 0 0 0 .86 1.5h17v18.94H173v-33.74h33.32a1.51 1.51 0 0 0 1.3-.75 1.49 1.49 0 0 0 0-1.5l-19.97-34.51h12.51a1.5 1.5 0 0 0 1.3-2.25l-18.8-32.57h10.9a1.5 1.5 0 0 0 1.3-2.25l-22.1-38.28a1.5 1.5 0 0 0-2.6 0l-22.11 38.28a1.54 1.54 0 0 0 0 1.5 1.5 1.5 0 0 0 1.3.75h10.9L141.45 89a1.49 1.49 0 0 0 0 1.5 1.51 1.51 0 0 0 1.3.75h12.51l-19.92 34.55a1.5 1.5 0 0 0 1.29 2.25H170v33.76h-56.8v-25.58h23.32a1 1 0 0 0 .86-1.5l-13.43-23.25h9.59a1 1 0 0 0 .86-.5 1 1 0 0 0 0-1l-13.73-23.73h9a1 1 0 0 0 .86-.5 1 1 0 0 0 0-1L113 54.35a1 1 0 0 0-1.73 0l-17.52 30.4a1 1 0 0 0 0 1 1 1 0 0 0 .86.5h9L90 110a1 1 0 0 0 0 1 1 1 0 0 0 .86.5h9.58L87 134.73a1 1 0 0 0 .86 1.5h23.31v25.58H68.81V145.7h14.34a1 1 0 0 0 .87-.5 1 1 0 0 0 0-1l-8.16-14.12h5.41a1 1 0 0 0 .87-.5 1 1 0 0 0 0-1l-8.32-14.42h5.07a1 1 0 0 0 .86-1.5L68.68 93.47a1 1 0 0 0-1.74 0l-11.08 19.19a1 1 0 0 0 0 1 1 1 0 0 0 .87.5h5.07l-8.32 14.42a1 1 0 0 0 0 1 1 1 0 0 0 .87.5h5.4L51.6 144.2a1 1 0 0 0 0 1 1 1 0 0 0 .87.5h14.34v16.11H46a1.5 1.5 0 0 0 0 3h283a1.5 1.5 0 0 0 0-3zm-189.77-36.76l19.93-34.51a1.5 1.5 0 0 0-1.3-2.25h-12.51l18.8-32.57a1.49 1.49 0 0 0 0-1.5 1.51 1.51 0 0 0-1.3-.75H152l19.51-33.78L191 53.47h-10.9a1.5 1.5 0 0 0-1.29 2.25l18.8 32.57h-12.55a1.5 1.5 0 0 0-1.3 2.25l19.92 34.51h-64.45zm-42.89-40.8l15.82-27.4L128 84.25h-8.48L113 73a1 1 0 0 0-1.73 0l-6.49 11.22zm20.86 0h-10.08l5-8.72zm-24.64 25.23L106 86.25h12.39l13.41 23.23h-9L113 92.62a1 1 0 0 0-1.73 0l-9.73 16.86zm27.89 0h-16.57l8.28-14.36zm-17.73 2h18.88l13.14 22.75H89.58zm-44.26.68L67.81 96l9.35 16.19h-4.5l-4-6.9a1 1 0 0 0-1.74 0l-4 6.9zm11.89 0h-5.08l2.54-4.4zm-14.27 15.92l8-13.92h7.4l8 13.92h-4.77l-6-10.45a1 1 0 0 0-1.74 0l-6 10.45zm16.32 0h-9.18l4.59-8zm-10.34 2h11.49l7.87 13.62H54.2zm233.2 31.73h-32.05v-22h19.93a1 1 0 0 0 .87-.5 1 1 0 0 0 0-1l-1-1.74h12.26zm-51.86-24.69l.39.68H243zm1.16-2l9.6-16.63h16.1l5.35 9.26-4.22 7.31a1 1 0 0 0 .86 1.5h8.44l.72 1.24H246.1zm10.76-18.63l6.89-11.94 6.89 11.94zm26.25.93a.94.94 0 0 0-.13-.43l-2.81-4.88h6zm-.55 1l-4.26 7.37-4.19-7.26h8a1.14 1.14 0 0 0 .43-.15zm-4.26 11.37l2.77 4.81H274zm41.78 4.81h-36.7l-3.92-6.81 9-15.64h18.63zm-30.44-24.49L296.26 96l8.16 14.14zm-7.44-24.91l15.6-27 15.6 27h-8.33l-6.4-11.08a1 1 0 0 0-1.73 0L289 85.2zm20.56 0h-9.91l4.95-8.58zm-11.07 2h12.22l13.22 22.91h-8.86l-9.6-16.64a1 1 0 0 0-1.73 0l-9.61 16.64h-8.32l-.27-.47zm-41.32 7.57l13.38-23.18 13.38 23.18h-7l-5.55-9.6a1 1 0 0 0-1.73 0l-5.54 9.6zm17.48 0h-8.2l4.1-7.1zm-9.36 2h10.51l7.43 12.87-.56 1a1 1 0 0 0 0 1 1 1 0 0 0 .87.5h1.12l2.52 4.38h-7.43l-8.34-14.44a1 1 0 0 0-1.73 0L253 116.49h-7.44zm-13.11 21.72h8l-8.45 14.63-5-8.6h6.65a1 1 0 0 0 .87-.5 1 1 0 0 0 0-1l-2.76-4.78a1 1 0 0 0 .69.25zM218 103.82l11.28-19.53 11.28 19.53h-5.69l-4.73-8.19a1 1 0 0 0-1.73 0l-4.73 8.19zm14.56 0H226l3.29-5.69zm-17.37 18.7l9.64-16.7h8.89l9.64 16.7h-6.08l-7.14-12.36a1 1 0 0 0-1.73 0l-7.14 12.36zm19.78 0h-11.39l5.7-9.86zm-12.54 2h13.7l6.12 10.6-1.84 3.18a1 1 0 0 0 0 1 1 1 0 0 0 .87.5H245l.62 1.07H213zm7.85 18.35h17a1 1 0 0 0 .87-.5 1 1 0 0 0 0-1l-.91-1.57h13.95v22h-30.91z"/>
</svg>
