<svg xmlns="http://www.w3.org/2000/svg" id="Layer_1" data-name="Layer 1" viewBox="0 0 375 180">
  <defs>
    <style>
      .cls-2{fill:#fff}
    </style>
  </defs>
  <path fill="#ff4437" d="M161.12 104.11C130.49 92 169.45 55 169.45 55s21.43 43-8.33 49.11z"/>
  <path d="M129.38 96.13L114 102.42c.16-1.87.34-3.7.52-5.48L129.06 91a1.08 1.08 0 0 0 .6-1.42 1.09 1.09 0 0 0-1.42-.6l-13.41 5.46q.33-2.92.69-5.67h.06a1 1 0 0 0 .41-.08l11.93-4.8a1.09 1.09 0 0 0-.82-2l-11.26 4.54q.43-3.06.89-5.86a.93.93 0 0 0 .24 0 1 1 0 0 0 .4-.08l9.4-3.72a1.09 1.09 0 0 0-.8-2l-8.78 3.48-.07-.06c.35-2.06.71-4 1.06-5.81a1 1 0 0 0 .17 0 1.09 1.09 0 0 0 .4-.07l6.87-2.64a1.09 1.09 0 1 0-.78-2l-6.2 2.38c.44-2.16.86-4.12 1.26-5.85h.21l4.34-1.56a1.09 1.09 0 0 0 .66-1.4 1.1 1.1 0 0 0-1.39-.66l-3.24 1.17c.71-3 1.27-5 1.53-5.87l1.21-.32a1.09 1.09 0 1 0-.55-2.11l-1.25.33-1.42-1.23a1.09 1.09 0 1 0-1.45 1.63l1.3 1.15c-.25.9-.75 2.69-1.38 5.28l-1.8-1.61a1.09 1.09 0 1 0-1.45 1.63l2.72 2.37q-.57 2.41-1.2 5.45l-3.45-3a1.09 1.09 0 1 0-1.45 1.63l4.4 3.89a149.6 149.6 0 0 0-1 5.59l-5.29-4.68a1.09 1.09 0 0 0-1.44 1.64l6.3 5.57q-.45 2.73-.89 5.72l-7.34-6.49a1.09 1.09 0 0 0-1.45 1.63l8.43 7.44q-.39 2.83-.74 5.86l-9.62-8.5a1.09 1.09 0 0 0-1.44 1.64l10.76 9.51c-.21 1.95-.4 3.94-.58 6L99.79 91.16a1.09 1.09 0 1 0-1.45 1.63l13.34 11.78c-.53 6.89-.86 14.29-.86 22.07a1.09 1.09 0 1 0 2.18 0c0-7.68.32-15 .84-21.78l16.36-6.71a1.09 1.09 0 0 0-.82-2zM277 96.73a1.1 1.1 0 0 0-1.43-.6l-15.33 6.29c.16-1.87.34-3.7.52-5.48L275.21 91a1.09 1.09 0 0 0-.82-2L261 94.48c.21-2 .45-3.84.69-5.67h.06a1 1 0 0 0 .4-.08l11.93-4.8a1.09 1.09 0 1 0-.81-2L262 86.45c.29-2 .58-4 .89-5.86a.93.93 0 0 0 .23 0 1 1 0 0 0 .41-.08l9.4-3.72a1.09 1.09 0 0 0-.81-2l-8.78 3.48-.06-.06c.35-2.06.71-4 1.06-5.81a1 1 0 0 0 .17 0 1 1 0 0 0 .39-.07l6.88-2.64a1.09 1.09 0 0 0-.79-2l-6.19 2.38c.44-2.16.86-4.12 1.25-5.85a1.46 1.46 0 0 0 .22 0l4.34-1.56a1.09 1.09 0 0 0 .66-1.4 1.08 1.08 0 0 0-1.39-.65l-3.24 1.16c.71-3 1.26-5 1.52-5.87l1.22-.32a1.09 1.09 0 1 0-.56-2.11l-1.24.33-1.38-1.22a1.07 1.07 0 0 0-1.54.09 1.09 1.09 0 0 0 .09 1.54l1.3 1.15c-.26.9-.75 2.69-1.38 5.28L262.81 59a1.09 1.09 0 1 0-1.44 1.63l2.71 2.37q-.56 2.41-1.19 5.45l-3.45-3a1.09 1.09 0 0 0-1.44 1.6l4.4 3.89a149.6 149.6 0 0 0-1 5.59l-5.29-4.68a1.09 1.09 0 1 0-1.44 1.64l6.3 5.57q-.45 2.73-.89 5.72l-7.34-6.49a1.09 1.09 0 1 0-1.45 1.63l8.43 7.45q-.39 2.82-.74 5.85l-9.62-8.5a1.09 1.09 0 0 0-1.45 1.64l10.77 9.51c-.21 1.95-.4 3.94-.58 6l-12.12-10.7a1.09 1.09 0 1 0-1.44 1.63l13.34 11.78c-.53 6.89-.86 14.29-.86 22.07a1.09 1.09 0 0 0 2.18 0c0-7.68.32-15 .84-21.78l16.36-6.71a1.09 1.09 0 0 0 .6-1.43zM226.81 96.13l-15.33 6.29c.15-1.87.33-3.7.51-5.48l14.5-5.94a1.08 1.08 0 0 0 .6-1.42 1.1 1.1 0 0 0-1.42-.6l-13.41 5.46q.33-2.92.69-5.67h.05a1 1 0 0 0 .41-.08l11.93-4.8a1.09 1.09 0 0 0-.82-2l-11.26 4.54q.43-3.06.89-5.86a1 1 0 0 0 .24 0 1 1 0 0 0 .4-.08l9.4-3.72a1.09 1.09 0 0 0-.8-2l-8.78 3.48-.07-.06c.35-2.06.71-4 1.06-5.81a1.13 1.13 0 0 0 .18 0 1.07 1.07 0 0 0 .39-.07l6.87-2.64a1.09 1.09 0 0 0-.78-2l-6.2 2.38c.44-2.16.86-4.12 1.26-5.85h.21l4.35-1.56a1.09 1.09 0 0 0-.74-2.05l-3.24 1.16c.71-3 1.27-5 1.53-5.87l1.22-.32a1.09 1.09 0 0 0-.56-2.11l-1.25.33-1.37-1.22a1.07 1.07 0 0 0-1.54.09 1.09 1.09 0 0 0 .09 1.54l1.29 1.15c-.25.9-.75 2.69-1.38 5.28L214.1 59a1.09 1.09 0 0 0-1.45 1.63l2.72 2.37q-.57 2.41-1.2 5.45l-3.45-3a1.09 1.09 0 1 0-1.44 1.63l4.39 3.89a149.6 149.6 0 0 0-1 5.59l-5.29-4.68a1.09 1.09 0 0 0-1.45 1.64l6.3 5.57q-.45 2.73-.89 5.72L204 78.29a1.09 1.09 0 1 0-1.45 1.63l8.45 7.44q-.39 2.83-.74 5.86l-9.62-8.5a1.09 1.09 0 1 0-1.44 1.64l10.76 9.51c-.2 1.95-.4 3.94-.58 6l-12.11-10.7a1.09 1.09 0 0 0-1.45 1.63l13.34 11.78c-.53 6.89-.86 14.29-.86 22.07a1.09 1.09 0 1 0 2.18 0c0-7.68.32-15 .84-21.78l16.36-6.71a1.09 1.09 0 1 0-.82-2zM170.42 54.47a.84.84 0 0 0-.22-.27v-.05a1 1 0 0 0-.33-.17h-.09a.94.94 0 0 0-.29 0 1 1 0 0 0-.49.02h-.05a.82.82 0 0 0-.22.16c-.9.85-20.65 19.81-20.41 35.38a17 17 0 0 0 .29 2.86c1 5.43 4.89 9.58 11.4 12.34a287.5 287.5 0 0 0-.84 21.83 1.09 1.09 0 1 0 2.18 0c0-7.64.31-14.9.83-21.67 6.44-1.5 11-4.86 13.53-10 7.29-14.9-4.77-39.38-5.29-40.42zm3.49 15.91a1.11 1.11 0 0 0-.86-.07l-6.6 2.33q.68-3.51 1.31-6.38l4.52-1.26a69.67 69.67 0 0 1 1.63 5.38zm-23.44 18.67c.09-6.48 4-13.76 8.27-19.85a1.19 1.19 0 0 0 .21.29l5 4.71c-.35 1.91-.71 3.93-1.05 6.07l-5.9-5.43a1.09 1.09 0 0 0-1.48 1.6l7 6.42c-.3 2-.6 4.08-.88 6.24l-8-7.32a1.09 1.09 0 0 0-1.47 1.61l9.19 8.36c-.26 2.06-.49 4.2-.71 6.4zm12.75-25.68l2.42 2.39q-.58 2.67-1.22 5.89l-4-3.74a1 1 0 0 0-.58-.27c1.16-1.53 2.3-2.96 3.38-4.27zm3-.12l-1.56-1.55c1-1.12 1.87-2.11 2.65-3-.31 1.3-.71 2.79-1.11 4.55zm2.1.58c.55-2.36 1-4.26 1.4-5.67.52 1.24 1.18 2.85 1.86 4.73zm-17.55 28.42l9.54 8.6-.15 1.67c-5.31-2.42-8.47-5.87-9.39-10.27zm11.57 10.43c0-.52.08-1 .13-1.55l9.31-4.13a17.6 17.6 0 0 1-9.44 5.68zm11.51-9l-11.15 5q.31-3.12.66-6.06l11.31-4.78a1.09 1.09 0 1 0-.85-2l-10.15 4.29c.28-2.13.56-4.2.86-6.17l9.7-3.83a1.09 1.09 0 0 0-.8-2l-8.52 3.36q.54-3.33 1.08-6.29l7.78-2.75a1.07 1.07 0 0 0 .53-.43c1.7 7.16 2.46 15.41-.45 21.67z" class="cls-2"/>
</svg>
