<svg xmlns="http://www.w3.org/2000/svg" id="Layer_1" data-name="Layer 1" viewBox="0 0 375 180">
  <defs>
    <style>
      .cls-1{fill:#ff4437}.cls-2{fill:#223c63}
    </style>
  </defs>
  <path d="M188.91 129.13l8.57-30.43H156l8.58 30.43h24.33zM152.45 90.82h48.57v7.88h-48.57z" class="cls-1"/>
  <path d="M201 89.73h-48.55a1.09 1.09 0 0 0-1.09 1.09v7.88a1.09 1.09 0 0 0 1.09 1.09h2.72l8.36 29.64a1.08 1.08 0 0 0 1.05.79h24.32a1.08 1.08 0 0 0 1-.79l8.36-29.64H201a1.09 1.09 0 0 0 1.09-1.09v-7.88a1.09 1.09 0 0 0-1.09-1.09zM188.08 128H165.4l-8-28.25H196zm11.86-30.4h-46.39v-5.69h46.39z" class="cls-2"/>
  <path d="M203.13 85.64V98.7h-1.23a24 24 0 0 1-14.77-13.06z" class="cls-1"/>
  <path d="M203.13 99.79h-1.23a1.13 1.13 0 0 1-.32-.05 25.06 25.06 0 0 1-15.44-13.65 1.07 1.07 0 0 1 .07-1 1.11 1.11 0 0 1 .92-.5h16a1.09 1.09 0 0 1 1.09 1.09V98.7a1.09 1.09 0 0 1-1.09 1.09zm-14.24-13.06a23.42 23.42 0 0 0 3.92 5.27 23 23 0 0 0 9.19 5.6V86.73z" class="cls-2"/>
  <path d="M203.13 100.7h-1.23a2 2 0 0 1-.59-.09 26 26 0 0 1-16-14.15 2 2 0 0 1 1.82-2.82h16a2 2 0 0 1 2 2V98.7a2 2 0 0 1-2 2zm-12.65-13.06a22.79 22.79 0 0 0 3 3.7 21.94 21.94 0 0 0 7.67 5v-8.7zM166.48 55.55a1.09 1.09 0 0 0-.89 1.26l1.93 10.92a1.08 1.08 0 0 0 1.07.9h.19a1.09 1.09 0 0 0 .88-1.27l-1.92-10.91a1.09 1.09 0 0 0-1.26-.9zM153.63 61.22a1.09 1.09 0 0 0-1.89 1.09l5.54 9.6a1.09 1.09 0 0 0 1.5.4 1.08 1.08 0 0 0 .39-1.49zM142 70.54a1.1 1.1 0 0 0-1.54.14 1.09 1.09 0 0 0 .14 1.53l8.49 7.13a1.1 1.1 0 0 0 1.54-.14 1.07 1.07 0 0 0-.14-1.53zM144.7 87.07l-10.42-3.79a1.09 1.09 0 0 0-1.4.65 1.11 1.11 0 0 0 .65 1.4L144 89.12a1.19 1.19 0 0 0 .37.06 1.09 1.09 0 0 0 .38-2.11zM221.25 65.64a1.75 1.75 0 0 0-2.46-.22l-12.46 10.45a1.75 1.75 0 0 0 1.13 3.13 1.72 1.72 0 0 0 1.12-.41L221 68.1a1.74 1.74 0 0 0 .25-2.46zM181.75 55.5a1.1 1.1 0 0 0-1.27.88l-1.92 10.92a1.08 1.08 0 0 0 .88 1.26.68.68 0 0 0 .2 0 1.1 1.1 0 0 0 1.07-.9l1.92-10.92a1.08 1.08 0 0 0-.88-1.24z" class="cls-2"/>
  <path d="M241.6 105.53l-12.85-12.84a26 26 0 1 0-2.83 2.83l12.85 12.84a2 2 0 0 0 2.83-2.83zm-48.15-14.2a22 22 0 0 1 0-31.11 22.34 22.34 0 0 1 5.74-4.12l-5.71 9.9a1.75 1.75 0 1 0 3 1.75l7.76-13.43a22.57 22.57 0 0 1 4.74-.52 22 22 0 0 1 20.25 30.59L215 89.56a1.75 1.75 0 0 0 .6 3.39 1.8 1.8 0 0 0 .6-.1l10.26-3.74a22.18 22.18 0 0 1-1.91 2.22 22 22 0 0 1-31.12 0z" class="cls-2"/>
</svg>
