<svg xmlns="http://www.w3.org/2000/svg" id="Layer_1" data-name="Layer 1" viewBox="0 0 375 180">
  <defs>
    <style>
      .cls-1{fill:#c49a6c;opacity:.6}.cls-2{fill:#fff}
    </style>
  </defs>
  <path d="M230.67 161.06l5.83-10.21H223l7-10.22h29l7-10.22h38.37L317 161.06h-86.33zM65.33 161.06L71 148.23h20.5l2.16 4.13h17.09l10.5 8.7H65.33z" class="cls-1"/>
  <path d="M80.67 155.06a1 1 0 0 0 1-1v-1a1 1 0 0 0-2 0v1a1 1 0 0 0 1 1zM79.67 139.06v1a1 1 0 0 0 2 0v-1a1 1 0 0 0-2 0zM104.48 136.39h.5a1 1 0 0 0 .87-.5 1 1 0 0 0 0-1l-.25-.43a1 1 0 0 0-1.36-.36.93.93 0 0 0-.46.59 1 1 0 0 0 .71 1.7zM99.49 127.89a1 1 0 0 0 .87.5 1 1 0 0 0 .5-.14 1 1 0 0 0 .36-1.36l-.33-.59a1 1 0 0 0-1.74 1zM101.87 130a1 1 0 0 0-.36 1.36l.33.59a1 1 0 0 0 1.37.36 1 1 0 0 0 .37-1.36l-.34-.59a1 1 0 0 0-1.37-.36zM98.87 122.81l-.34-.59a1 1 0 0 0-1.37-.36 1 1 0 0 0-.36 1.36l.33.59a1 1 0 0 0 1.37.36 1 1 0 0 0 .37-1.36zM94.78 119.73a1 1 0 0 0 .87.5 1 1 0 0 0 .5-.14 1 1 0 0 0 .36-1.36l-.33-.59a1 1 0 0 0-1.74 1zM92.42 115.65a1 1 0 0 0 .87.5.93.93 0 0 0 .5-.14 1 1 0 0 0 .37-1.36l-.34-.58a1 1 0 1 0-1.73 1zM91.44 111.94a1 1 0 0 0 .46-.6 1 1 0 0 0-.71-1.7h-.5a1 1 0 0 0-.87.5 1 1 0 0 0 0 1l.25.43a1 1 0 0 0 .87.5 1 1 0 0 0 .5-.13zM99.41 110.64a1 1 0 0 0-1-1h-.52a1 1 0 0 0 0 2h.52a1 1 0 0 0 1-1zM95.8 110.64a1 1 0 0 0-1-1h-.52a1 1 0 0 0 0 2h.52a1 1 0 0 0 1-1zM101.5 111.64h.5a1 1 0 0 0 .87-.5 1 1 0 0 0 0-1l-.25-.44a1 1 0 0 0-1.37-.36.92.92 0 0 0-.46.6 1 1 0 0 0-.29.7 1 1 0 0 0 1 1zM98.48 106.55l.35.59a1 1 0 0 0 .86.5 1 1 0 0 0 .87-1.5l-.34-.59a1 1 0 1 0-1.74 1zM97.29 103.48a1 1 0 0 0 .87-1.5l-.34-.59a1 1 0 1 0-1.74 1l.35.59a1 1 0 0 0 .86.5zM91.62 94.67A1 1 0 0 0 93 95a1 1 0 0 0 .37-1.36l-.35-.6a1 1 0 0 0-1.36-.36 1 1 0 0 0-.37 1.36zM90.09 91a1 1 0 0 0 .5-.14 1 1 0 0 0 .41-1.35l-.35-.6a1 1 0 0 0-1.73 1l.34.6a1 1 0 0 0 .83.49zM94 98.82a1 1 0 0 0 .86.5 1 1 0 0 0 .87-1.5l-.35-.59a1 1 0 0 0-1.36-.37 1 1 0 0 0-.37 1.37zM86.57 84.92a1 1 0 0 0 0 1l.25.43a1 1 0 0 0 .87.5.93.93 0 0 0 .5-.14 1 1 0 0 0 .46-.59 1 1 0 0 0-.71-1.7h-.5a1 1 0 0 0-.87.5zM89.87 85.42a1 1 0 0 0 1 1h.49a1 1 0 0 0 0-2h-.49a1 1 0 0 0-1 1zM94.3 86.42h.49a1 1 0 0 0 0-2h-.49a1 1 0 0 0 0 2zM97.72 86.42h.5a1 1 0 0 0 .87-.5 1 1 0 0 0 0-1l-.25-.44a1 1 0 0 0-1.37-.36.92.92 0 0 0-.46.6 1 1 0 0 0-.29.7 1 1 0 0 0 1 1zM94.61 81.16a1 1 0 0 0 .87.5 1 1 0 0 0 .49-.13 1 1 0 0 0 .37-1.37l-.41-.72a1 1 0 0 0-1.74 1zM91.7 76.12a1 1 0 0 0 1.73-1L93 74.4a1 1 0 0 0-1.35-.4 1 1 0 0 0-.37 1.37zM83 61a1 1 0 0 0 .87.5.93.93 0 0 0 .5-.14A1 1 0 0 0 84.7 60l-.42-.72a1 1 0 1 0-1.73 1zM88.79 71.07a1 1 0 0 0 .86.5 1 1 0 0 0 .87-1.5l-.42-.72a1 1 0 0 0-1.73 1zM85.87 66a1 1 0 0 0 1.74-1l-.42-.72a1 1 0 1 0-1.73 1zM79.92 56.31a.94.94 0 0 0 .75.1 1 1 0 0 0 .25 0 1 1 0 0 0 .5-.14 1 1 0 0 0 .36-1.27l-.25-.44a1 1 0 0 0-1.73 0l-.25.44a1 1 0 0 0 .37 1.31zM77 61.36a1 1 0 0 0 .49.13 1 1 0 0 0 .87-.5l.42-.72a1 1 0 0 0-.37-1.37 1 1 0 0 0-1.36.37l-.42.72a1 1 0 0 0 .37 1.37zM74.09 66.4a1 1 0 0 0 1.37-.4l.42-.72a1 1 0 0 0-1.74-1l-.41.72a1 1 0 0 0 .36 1.4zM65.36 81.53a1 1 0 0 0 1.37-.37l.41-.72a1 1 0 1 0-1.73-1l-.42.72a1 1 0 0 0 .37 1.37zM68.27 76.48a1 1 0 0 0 .5.14 1 1 0 0 0 .87-.5l.41-.72a1 1 0 1 0-1.73-1l-.41.72a1 1 0 0 0 .36 1.36zM71.18 71.44a1 1 0 0 0 1.37-.37l.42-.72a1 1 0 0 0-1.74-1l-.41.72a1 1 0 0 0 .36 1.37zM63.11 86.42h.5a1 1 0 0 0 1-1 1 1 0 0 0-.28-.7 1 1 0 0 0-.47-.6 1 1 0 0 0-1.36.36l-.25.44a1 1 0 0 0 .86 1.5zM66.55 84.42a1 1 0 0 0 0 2H67a1 1 0 0 0 0-2zM69 85.42a1 1 0 0 0 1 1h.49a1 1 0 0 0 0-2H70a1 1 0 0 0-1 1zM72.4 85.42a1 1 0 0 0 .28.7 1 1 0 0 0 .46.59.93.93 0 0 0 .5.14 1 1 0 0 0 .87-.5l.25-.43a1 1 0 0 0-.86-1.5h-.5a1 1 0 0 0-1 1zM71.24 91a1 1 0 0 0 .87-.5l.34-.6a1 1 0 0 0-.36-1.36 1 1 0 0 0-1.37.36l-.34.6a1 1 0 0 0 .36 1.36 1 1 0 0 0 .5.14zM68.84 95.17a1 1 0 0 0 .87-.5l.34-.6a1 1 0 0 0-1.73-1l-.34.6a1 1 0 0 0 .36 1.33 1 1 0 0 0 .5.17zM64 103.48a1 1 0 0 0 .87-.5l.34-.59a1 1 0 1 0-1.73-1l-.34.59a1 1 0 0 0 .36 1.37 1 1 0 0 0 .5.13zM65.94 99.19a1 1 0 0 0 1.37-.37l.34-.59a1 1 0 1 0-1.73-1l-.34.59a1 1 0 0 0 .36 1.37zM61.14 107.51a1 1 0 0 0 1.37-.37l.34-.6a1 1 0 1 0-1.73-1l-.34.59a1 1 0 0 0 .36 1.38zM59.33 111.64h.5a1 1 0 0 0 1-1 1 1 0 0 0-.28-.7 1 1 0 0 0-.47-.6 1 1 0 0 0-1.36.36l-.25.44a1 1 0 0 0 .86 1.5zM63.44 111.64a1 1 0 0 0 0-2h-.51a1 1 0 1 0 0 2zM68.05 110.64a1 1 0 0 0-1-1h-.51a1 1 0 0 0 0 2h.51a1 1 0 0 0 1-1zM69.9 111.94a1 1 0 0 0 .5.13 1 1 0 0 0 .86-.5l.25-.43a1 1 0 0 0 0-1 1 1 0 0 0-.87-.5h-.5a1 1 0 0 0-.71 1.7 1 1 0 0 0 .47.6zM66.56 119.73l.33-.58a1 1 0 1 0-1.73-1l-.34.58a1 1 0 0 0 .37 1.36.93.93 0 0 0 .5.14 1 1 0 0 0 .87-.5zM67.54 116a1 1 0 0 0 .5.13 1 1 0 0 0 .87-.5l.34-.58a1 1 0 1 0-1.74-1l-.33.58a1 1 0 0 0 .36 1.37zM62.83 124.17a1 1 0 0 0 .5.14 1 1 0 0 0 .87-.5l.34-.59a1 1 0 0 0-1.74-1l-.33.59a1 1 0 0 0 .36 1.36zM61.82 125.94a1 1 0 0 0-1.37.36l-.34.59a1 1 0 0 0 .37 1.36 1 1 0 0 0 .5.14 1 1 0 0 0 .86-.5l.34-.59a1 1 0 0 0-.36-1.36zM58.12 132.33a1 1 0 0 0 .5.14 1 1 0 0 0 .87-.5l.34-.59a1 1 0 0 0-.37-1.36 1 1 0 0 0-1.37.36l-.33.59a1 1 0 0 0 .36 1.36zM56.36 136.39h.5a1.19 1.19 0 1 0-1.12-1.93l-.25.43a1 1 0 0 0 0 1 1 1 0 0 0 .87.5zM63.82 136.39H65a1 1 0 1 0 0-2h-1.18a1 1 0 1 0 0 2zM72 136.39h1.16a1 1 0 0 0 0-2H72a1 1 0 1 0 0 2zM87.22 135.39a1 1 0 0 0 1 1h1.16a1 1 0 0 0 0-2h-1.16a1 1 0 0 0-1 1zM96.35 136.39h1.16a1 1 0 0 0 0-2h-1.16a1 1 0 0 0 0 2zM80.09 136.39h1.16a1 1 0 0 0 0-2h-1.16a1 1 0 0 0 0 2zM162.78 148.79a1 1 0 0 0-2 0v.84a1 1 0 0 0 2 0zM161.78 153.67a1 1 0 0 0-1 1v.85a1 1 0 0 0 2 0v-.85a1 1 0 0 0-1-1zM162.78 137a1 1 0 0 0-2 0v.85a1 1 0 0 0 2 0zM162.78 131.13a1 1 0 0 0-2 0v.87a1 1 0 0 0 2 0zM162.78 142.9a1 1 0 0 0-2 0v.84a1 1 0 0 0 2 0zM160.87 126.5a1 1 0 0 0 .91.58 1 1 0 0 0 .91-.59 1 1 0 0 0-.41-1.91h-1a1 1 0 0 0-1 1 1 1 0 0 0 .59.92zM150.15 126.58h.8a1 1 0 0 0 0-2h-.8a1 1 0 0 0 0 2zM154.72 125.58a1 1 0 0 0 1 1h.79a1 1 0 0 0 0-2h-.79a1 1 0 0 0-1 1zM139 126.58h.79a1 1 0 0 0 0-2H139a1 1 0 0 0 0 2zM145.38 124.58h-.8a1 1 0 0 0 0 2h.8a1 1 0 0 0 0-2zM133.45 124.58a1 1 0 0 0 0 2h.79a1 1 0 0 0 0-2zM128.18 126.58h.5a1 1 0 0 0 .71-1.7 1 1 0 0 0-.46-.6 1 1 0 0 0-1.37.37l-.25.43a1 1 0 0 0 0 1 1 1 0 0 0 .87.5zM134.39 112.83l-.49.84a1 1 0 0 0 .36 1.37 1 1 0 0 0 .5.14 1 1 0 0 0 .87-.5l.49-.85a1 1 0 0 0-.37-1.36 1 1 0 0 0-1.36.36zM130.85 121a1 1 0 0 0 .5.13 1 1 0 0 0 .87-.5l.49-.84a1 1 0 0 0-1.74-1l-.48.84a1 1 0 0 0 .36 1.37zM139 108.77l.49-.85a1 1 0 0 0-.37-1.36 1 1 0 0 0-1.36.36l-.49.85a1 1 0 0 0 .37 1.36 1 1 0 0 0 .49.14 1 1 0 0 0 .87-.5zM141.21 101l-.49.85a1 1 0 1 0 1.73 1l.49-.85a1 1 0 0 0-1.73-1zM146 94.74a1 1 0 0 0-1.37.36l-.49.85a1 1 0 0 0 .37 1.36.93.93 0 0 0 .5.14 1 1 0 0 0 .86-.5l.49-.85a1 1 0 0 0-.36-1.36zM147.91 91.41a1 1 0 0 0 1.37-.37l.25-.43a1 1 0 0 0 0-1 1 1 0 0 0-.87-.5h-.5a1 1 0 0 0-.71 1.7 1 1 0 0 0 .46.6zM137.65 90.11a1 1 0 0 0 1 1h.68a1 1 0 0 0 0-2h-.68a1 1 0 0 0-1 1zM143.41 91.11h.68a1 1 0 0 0 0-2h-.68a1 1 0 0 0 0 2zM134.08 91.11h.5a1 1 0 0 0 1-1 1 1 0 0 0-.29-.7.92.92 0 0 0-.46-.6 1 1 0 0 0-1.37.36l-.25.44a1 1 0 0 0 0 1 1 1 0 0 0 .87.5zM136.6 85.75a1 1 0 0 0 .49.13 1 1 0 0 0 .87-.5l.46-.8a1 1 0 0 0-.36-1.36 1 1 0 0 0-1.37.36l-.46.8a1 1 0 0 0 .37 1.37zM139.82 80.16a1 1 0 0 0 .5.13 1 1 0 0 0 .87-.5l.46-.79a1 1 0 0 0-.37-1.37 1 1 0 0 0-1.36.37l-.46.79a1 1 0 0 0 .36 1.37zM150 63.53a1 1 0 0 0 .87-.5l.46-.8a1 1 0 0 0-.37-1.36 1 1 0 0 0-1.36.36l-.46.8a1 1 0 0 0 .36 1.37 1 1 0 0 0 .5.13zM143.05 74.57a1 1 0 0 0 .5.14 1 1 0 0 0 .86-.5l.47-.8a1 1 0 0 0-1.74-1l-.46.8a1 1 0 0 0 .37 1.36zM147.64 68.62l.46-.8a1 1 0 1 0-1.73-1l-.46.8a1 1 0 0 0 .37 1.36.87.87 0 0 0 .49.14 1 1 0 0 0 .87-.5zM152 56.51a2.68 2.68 0 0 0 .75 1.3 1 1 0 0 0 .5.13 1 1 0 0 0 .86-.5l.25-.43a1 1 0 0 0 0-1 1 1 0 0 0-.86-.5h-.5a1 1 0 0 0-1 1zM144.56 55.51a1 1 0 0 0 0 2h.6a1 1 0 0 0 0-2zM147.77 56.51a1 1 0 0 0 1 1h.6a1 1 0 0 0 0-2h-.6a1 1 0 0 0-1 1zM140.45 57.51h.5a1 1 0 0 0 1-1 1 1 0 0 0-.28-.7 1 1 0 0 0-.47-.6 1 1 0 0 0-1.36.37l-.25.43a1 1 0 0 0 .86 1.5zM146.81 45.5a1 1 0 0 0 .5.13 1 1 0 0 0 .86-.5l.51-.88a1 1 0 0 0-.36-1.36 1 1 0 0 0-1.37.36l-.51.88a1 1 0 0 0 .37 1.37zM143.25 51.66a1 1 0 0 0 .5.13 1 1 0 0 0 .87-.5l.51-.87a1 1 0 1 0-1.74-1l-.5.87a1 1 0 0 0 .36 1.37zM150.36 39.34a1 1 0 0 0 .5.13 1 1 0 0 0 .87-.5l.51-.88a1 1 0 0 0-1.73-1L150 38a1 1 0 0 0 .36 1.34zM153.92 33.18a1 1 0 0 0 .5.13 1 1 0 0 0 .87-.5l.51-.88a1 1 0 0 0-1.74-1l-.5.88a1 1 0 0 0 .36 1.37zM157.48 27a1 1 0 0 0 .5.13 1 1 0 0 0 .86-.5l.51-.88a1 1 0 0 0-.36-1.36 1 1 0 0 0-1.37.36l-.51.88a1 1 0 0 0 .37 1.37zM161 20.86a1 1 0 0 0 .75.1 1.15 1.15 0 0 0 .26 0 1 1 0 0 0 .49-.13 1 1 0 0 0 .37-1.37l-.25-.43a1 1 0 0 0-1.73 0l-.25.43a1 1 0 0 0 .36 1.4zM164.73 26.65a1 1 0 0 0 .86.5 1 1 0 0 0 .87-1.5l-.51-.88a1 1 0 0 0-1.37-.36 1 1 0 0 0-.36 1.36zM168.28 32.81a1 1 0 1 0 1.73-1l-.5-.88a1 1 0 0 0-1.74 1zM175.39 45.13a1 1 0 0 0 .87.5 1 1 0 0 0 .87-1.5l-.51-.88a1 1 0 0 0-1.37-.36 1 1 0 0 0-.36 1.36zM171.84 39a1 1 0 0 0 .87.5 1 1 0 0 0 .49-.13 1 1 0 0 0 .37-1.37l-.51-.88a1 1 0 0 0-1.73 1zM179 51.29a1 1 0 0 0 .87.5 1 1 0 0 0 .5-.13 1 1 0 0 0 .36-1.37l-.51-.87a1 1 0 0 0-1.36-.37 1 1 0 0 0-.37 1.37zM182.62 57.51h.5A1 1 0 0 0 184 56l-.25-.43a1 1 0 0 0-1.37-.37 1 1 0 0 0-.46.6 1 1 0 0 0-.28.7 1 1 0 0 0 .98 1.01zM173.2 56.51a1 1 0 0 0 1 1h.6a1 1 0 0 0 0-2h-.6a1 1 0 0 0-1 1zM178.41 57.51h.6a1 1 0 0 0 0-2h-.6a1 1 0 0 0 0 2zM169.23 56a1 1 0 0 0 0 1l.25.43a1 1 0 0 0 1.37.37 1 1 0 0 0 .46-.6 1 1 0 0 0 .29-.7 1 1 0 0 0-1-1h-.5a1 1 0 0 0-.87.5zM173.57 63.53a1 1 0 0 0 .5-.13 1 1 0 0 0 .36-1.37l-.46-.8a1 1 0 0 0-1.73 1l.46.8a1 1 0 0 0 .87.5zM177.29 69a1 1 0 0 0 .37-1.36l-.46-.8a1 1 0 0 0-1.37-.37 1 1 0 0 0-.36 1.37l.46.8a1 1 0 0 0 .86.5.9.9 0 0 0 .5-.14zM183.65 78a1 1 0 0 0-1.36-.37 1 1 0 0 0-.37 1.37l.46.79a1 1 0 0 0 .87.5 1 1 0 0 0 .86-1.5zM179.06 72a1 1 0 0 0-.37 1.37l.46.8a1 1 0 0 0 1.37.36 1 1 0 0 0 .37-1.36l-.46-.8a1 1 0 0 0-1.37-.37zM185.61 85.38a1 1 0 0 0 1.36.37 1 1 0 0 0 .37-1.37l-.46-.8a1 1 0 0 0-1.37-.36 1 1 0 0 0-.36 1.36zM189 91.11h.5a1 1 0 0 0 .86-.5 1 1 0 0 0 0-1l-.25-.44a1 1 0 0 0-1.36-.36.92.92 0 0 0-.46.6 1 1 0 0 0-.29.7 1 1 0 0 0 1 1zM180.16 89.11h-.68a1 1 0 0 0 0 2h.68a1 1 0 0 0 0-2zM183.24 90.11a1 1 0 0 0 1 1h.67a1 1 0 0 0 0-2h-.67a1 1 0 0 0-1 1zM175.16 91.54a1 1 0 0 0 1-.73 1 1 0 0 0-.71-1.7h-.5a1 1 0 0 0-.87.5 1 1 0 0 0 0 1l.25.43a1 1 0 0 0 .83.5zM177.7 97a1 1 0 0 0 .87.5.93.93 0 0 0 .5-.14 1 1 0 0 0 .37-1.36l-.44-.9a1 1 0 0 0-1.37-.36 1 1 0 0 0-.36 1.36zM180.63 102l.49.85a1 1 0 0 0 .86.5 1 1 0 0 0 .5-.14 1 1 0 0 0 .37-1.36l-.49-.85a1 1 0 0 0-1.73 1zM186.26 107.77l-.49-.85a1 1 0 0 0-1.73 1l.49.85a1 1 0 0 0 1.73-1zM187.45 113.83l.49.84a1 1 0 0 0 .87.5 1 1 0 0 0 .49-.13 1 1 0 0 0 .37-1.37l-.49-.84a1 1 0 0 0-1.36-.37 1 1 0 0 0-.37 1.37zM191.35 120.58a1 1 0 0 0 .87.5 1 1 0 0 0 .5-.13 1 1 0 0 0 .36-1.37l-.48-.84a1 1 0 0 0-1.74 1zM194.89 126.58h.5a1 1 0 0 0 .87-.5 1 1 0 0 0 0-1l-.25-.43a1 1 0 0 0-1.37-.37 1 1 0 0 0-.46.6 1 1 0 0 0 .71 1.7zM190.12 124.58h-.8a1 1 0 0 0 0 2h.8a1 1 0 0 0 0-2zM184.55 124.58h-.79a1 1 0 0 0 0 2h.79a1 1 0 0 0 0-2zM166.06 125.58a1 1 0 0 0 1 1h.79a1 1 0 0 0 0-2h-.79a1 1 0 0 0-1 1zM178.19 126.58h.8a1 1 0 0 0 0-2h-.8a1 1 0 0 0 0 2zM171.62 125.58a1 1 0 0 0 1 1h.8a1 1 0 0 0 0-2h-.8a1 1 0 0 0-1 1zM234 125.63a1 1 0 0 0-2 0v1a1 1 0 0 0 2 0zM234 119.38a1 1 0 0 0 .5-.85 1 1 0 0 0-1-1h-1a1 1 0 0 0-.51 1.85v.25a1 1 0 0 0 2 0zM233 131.63a1 1 0 0 0-1 1v1a1 1 0 0 0 2 0v-1a1 1 0 0 0-1-1zM252.71 117.83a1 1 0 0 0-.28.7 1 1 0 0 0 1 1h.5a1 1 0 0 0 .86-1.5l-.25-.43a1 1 0 0 0-1.36-.37 1 1 0 0 0-.47.6zM251.16 113.74a1 1 0 0 0-.37 1.37l.29.5a1 1 0 0 0 .87.5 1 1 0 0 0 .5-.14 1 1 0 0 0 .36-1.36l-.28-.5a1 1 0 0 0-1.37-.37zM249.07 112.11a1 1 0 0 0 1.36.37 1 1 0 0 0 .37-1.37l-.29-.5a1 1 0 1 0-1.73 1zM243 101.64a1 1 0 1 0 1.73-1l-.29-.5a1 1 0 0 0-1.36-.37 1 1 0 0 0-.37 1.37zM245 105.13a1 1 0 0 0 .86.5 1 1 0 0 0 .87-1.5l-.29-.5a1 1 0 0 0-1.73 1zM248.78 107.62l-.28-.5a1 1 0 0 0-1.74 1l.29.5a1 1 0 1 0 1.73-1zM242.37 98.51a.93.93 0 0 0 .46-.59 1 1 0 0 0 .29-.71 1 1 0 0 0-1-1h-.5a1 1 0 0 0-.87.5 1 1 0 0 0 0 1l.25.44a1 1 0 0 0 .87.5.93.93 0 0 0 .5-.14zM245.18 96.21h-.44a1 1 0 0 0 0 2h.44a1 1 0 0 0 0-2zM246.8 97.21a1 1 0 0 0 1 1h.44a1 1 0 0 0 0-2h-.44a1 1 0 0 0-1 1zM250.15 96.51a1 1 0 0 0 .71 1.7h.5a1 1 0 0 0 .87-.5 1 1 0 0 0 0-1l-.25-.43a1 1 0 0 0-1.83.23zM248.16 89.67l-.29-.51a1 1 0 0 0-1.37-.36 1 1 0 0 0-.36 1.36l.29.51a1 1 0 0 0 .87.5 1 1 0 0 0 .49-.13 1 1 0 0 0 .37-1.37zM248.56 92.36a1 1 0 0 0-.37 1.36l.29.51a1 1 0 0 0 1.74-1l-.3-.51a1 1 0 0 0-1.36-.36zM241.7 78.48a1 1 0 0 0-1.73 1l.29.51A1 1 0 0 0 242 79zM242.39 81.68A1 1 0 0 0 242 83l.29.51a1 1 0 0 0 .87.5 1 1 0 0 0 .49-.13 1 1 0 0 0 .37-1.37l-.29-.51a1 1 0 0 0-1.34-.32zM245.81 85.6a1 1 0 0 0-1.73 1l.29.51a1 1 0 0 0 1.74-1zM238 75a1 1 0 0 0 0 1l.25.43a1 1 0 0 0 .87.5 1 1 0 0 0 .49-.13 1 1 0 0 0 .47-.6 1 1 0 0 0 .28-.7 1 1 0 0 0-1-1h-.5a1 1 0 0 0-.86.5zM245.12 74.5h-.41a1 1 0 0 0 0 2h.41a1 1 0 0 0 0-2zM240.81 75.5a1 1 0 0 0 1 1h.41a1 1 0 1 0 0-2h-.41a1 1 0 0 0-1 1zM247.61 76.5h.5a1 1 0 0 0 .89-.5 1 1 0 0 0 0-1l-.25-.43a1 1 0 0 0-1.36-.37 2.68 2.68 0 0 0-.75 1.3 1 1 0 0 0 .97 1zM242.36 67.54a1 1 0 0 0 1.36.37 1 1 0 0 0 .37-1.37l-.36-.62a1 1 0 0 0-1.73 1zM244.85 71.86a1 1 0 0 0 1.74-1l-.36-.61a1 1 0 1 0-1.73 1zM237.37 58.9a1 1 0 0 0 1.36.37 1 1 0 0 0 .37-1.37l-.36-.62a1 1 0 0 0-1.73 1zM234.87 54.58a1 1 0 0 0 .87.5.93.93 0 0 0 .5-.14 1 1 0 0 0 .37-1.36l-.36-.62a1 1 0 0 0-1.37-.37 1 1 0 0 0-.36 1.37zM239.86 63.22a1 1 0 1 0 1.73-1l-.35-.62a1 1 0 0 0-1.37-.36 1 1 0 0 0-.36 1.36zM232.24 50.62a1 1 0 0 0 .75.1.78.78 0 0 0 .26 0 1 1 0 0 0 .49-.14 1 1 0 0 0 .37-1.36l-.25-.44a1 1 0 0 0-1.73 0l-.25.44a1 1 0 0 0 .36 1.4zM229.75 54.94a1 1 0 0 0 1.37-.36l.35-.62a1 1 0 1 0-1.73-1l-.36.62a1 1 0 0 0 .37 1.36zM227.25 59.26a.93.93 0 0 0 .5.14 1 1 0 0 0 .87-.5l.36-.62a1 1 0 0 0-1.74-1l-.35.62a1 1 0 0 0 .36 1.36zM222.26 67.91a1 1 0 0 0 1.37-.37l.36-.62a1 1 0 0 0-1.74-1l-.35.62a1 1 0 0 0 .36 1.37zM219.77 72.23a1 1 0 0 0 1.37-.37l.35-.61a1 1 0 0 0-.37-1.37 1 1 0 0 0-1.36.37l-.36.61a1 1 0 0 0 .37 1.37zM224.76 63.59a1 1 0 0 0 1.37-.37l.35-.62a1 1 0 0 0-1.73-1l-.36.62a1 1 0 0 0 .37 1.37zM217.88 76.5h.5a1 1 0 0 0 1-1 1 1 0 0 0-.29-.7 1 1 0 0 0-.46-.6 1 1 0 0 0-1.37.37L217 75a1 1 0 0 0 0 1 1 1 0 0 0 .88.5zM221.28 74.5h-.41a1 1 0 0 0 0 2h.41a1 1 0 0 0 0-2zM222.76 75.5a1 1 0 0 0 1 1h.42a1 1 0 0 0 0-2h-.42a1 1 0 0 0-1 1zM225.66 75.5a1 1 0 0 0 .29.7 1 1 0 0 0 .46.6 1 1 0 0 0 1.37-.37L228 76a1 1 0 0 0 0-1 1 1 0 0 0-.87-.5h-.5a1 1 0 0 0-.97 1zM222.23 82l-.29.51a1 1 0 0 0 .36 1.37 1 1 0 0 0 1.37-.37L224 83a1 1 0 0 0-.36-1.36 1 1 0 0 0-1.41.36zM224.36 80.36a1 1 0 0 0 1.36-.37l.3-.51a1 1 0 0 0-.37-1.36 1 1 0 0 0-1.36.36L224 79a1 1 0 0 0 .36 1.36zM220.25 87.48a1 1 0 0 0 .5.13 1 1 0 0 0 .86-.5l.3-.51a1 1 0 0 0-.37-1.36 1 1 0 0 0-1.36.36l-.3.51a1 1 0 0 0 .37 1.37zM216.14 94.6a1 1 0 0 0 .5.13 1 1 0 0 0 .86-.5l.3-.51a1 1 0 0 0-.37-1.36 1 1 0 0 0-1.36.36l-.3.51a1 1 0 0 0 .37 1.37zM218.12 89.16l-.29.51a1 1 0 0 0 .86 1.5 1 1 0 0 0 .87-.5l.29-.51a1 1 0 0 0-.36-1.36 1 1 0 0 0-1.37.36zM214.63 98.21h.5a1.19 1.19 0 1 0-1.13-1.93l-.25.43a1 1 0 0 0 0 1 1 1 0 0 0 .88.5zM221.25 96.21h-.44a1 1 0 0 0 0 2h.44a1 1 0 0 0 0-2zM216.75 97.21a1 1 0 0 0 1 1h.44a1 1 0 0 0 0-2h-.44a1 1 0 0 0-1 1zM224.12 98.65a1 1 0 0 0 .86-.5l.25-.44a1 1 0 0 0-.86-1.5h-.5a1 1 0 0 0-1 1 1.05 1.05 0 0 0 .28.71 1 1 0 0 0 .47.59.93.93 0 0 0 .5.14zM221 105.13l.29-.5a1 1 0 0 0-1.73-1l-.29.5a1 1 0 0 0 .37 1.37 1 1 0 0 0 1.36-.37zM222.1 102.14a1 1 0 0 0 .87-.5l.29-.5a1 1 0 0 0-1.74-1l-.28.5a1 1 0 0 0 .36 1.37 1 1 0 0 0 .5.13zM213.54 116a1 1 0 0 0 1.37-.36l.28-.5a1 1 0 1 0-1.73-1l-.29.5a1 1 0 0 0 .37 1.36zM218.07 109.12a1 1 0 0 0 .87-.5l.29-.5a1 1 0 0 0-1.74-1l-.28.5a1 1 0 0 0 .36 1.37 1 1 0 0 0 .5.13zM215.48 110.62l-.29.49a1 1 0 0 0 .37 1.37 1 1 0 0 0 .49.13 1 1 0 0 0 .87-.5l.29-.49a1 1 0 0 0-.37-1.37 1 1 0 0 0-1.36.37zM212.06 119.53h.5a1 1 0 0 0 1-1 1 1 0 0 0-.29-.7 1 1 0 0 0-.46-.6 1 1 0 0 0-1.36.37l-.25.43a1 1 0 0 0 0 1 1 1 0 0 0 .86.5zM218.54 119.53h1a1 1 0 0 0 0-2h-1a1 1 0 0 0 0 2zM225.52 119.53h1a1 1 0 0 0 0-2h-1a1 1 0 0 0 0 2zM246.45 119.53h1a1 1 0 0 0 0-2h-1a1 1 0 0 0 0 2zM238.47 118.53a1 1 0 0 0 1 1h1a1 1 0 0 0 0-2h-1a1 1 0 0 0-1 1z" class="cls-2"/>
  <path d="M329 159.56h-11.54L305.3 130a1 1 0 0 0-.93-.61h-53a1 1 0 0 0-.8.4l-7.22 9.81H234a1 1 0 0 0-2 0h-17a1 1 0 0 0-.81.41l-14.37 19.52H121l-9.62-8a1 1 0 0 0-.64-.23H94.27l-1.88-3.6a1 1 0 0 0-.89-.53h-9.87a1 1 0 0 0 0-.17v-1a1 1 0 0 0-2 0v1a1 1 0 0 0 0 .17H61.55a1 1 0 0 0-.91.57l-5.5 11.76H46a1.5 1.5 0 0 0 0 3h283a1.5 1.5 0 0 0 0-3zm-113.45-17.93H273a1 1 0 0 0 0-2h-27.13l6-8.21h51.83l11.6 28.14h-11.66l-6.83-9.31a1 1 0 0 0-.81-.4h-73a1 1 0 0 0 0 2h72.49l5.67 7.71h-98.81zm-105.16 11.73l7.48 6.2H98.56l-3.24-6.2zm-48.21-4.13H90.9l5.41 10.33h-14.8a1 1 0 0 0-1.69 0H57.35zM276.87 43.69h49.49a3.64 3.64 0 0 0 3.64-3.63 13.82 13.82 0 0 0-13.8-13.81h-1a13.63 13.63 0 0 0-25.53 0 17.36 17.36 0 0 0-15.94 13.49 3.17 3.17 0 0 0 .61 2.69 3.2 3.2 0 0 0 2.53 1.26zm25.59-24.25a11.56 11.56 0 0 1 11.11 8.23 1 1 0 0 0 1.09.7 11.15 11.15 0 0 1 1.54-.12 11.82 11.82 0 0 1 11.8 11.8 1.64 1.64 0 0 1-1.64 1.64h-7a2.11 2.11 0 0 0 .36-1.19 10.56 10.56 0 0 0-12-10.52 10.47 10.47 0 0 0-10-7.41 8.52 8.52 0 0 0-4.32 1.19 11.58 11.58 0 0 1 9.06-4.32z" class="cls-2"/>
</svg>
